<svg xmlns="http://www.w3.org/2000/svg" width="139.812" height="216.448" viewBox="0 0 139.812 216.448"><defs><style>.a{fill:#00aeef;}</style></defs><rect class="a" width="62.378" height="62.378" rx="8.4" transform="translate(77.433)"/><rect class="a" width="31.292" height="31.292" rx="3.52" transform="translate(15.543 143.424)"/><path class="a" d="M127.92,132.908l.8-.656s-63.266.579-62.751-31.074V61.839A13.319,13.319,0,0,0,52.71,48.52h-39.4A13.319,13.319,0,0,0,0,61.839v39.34a13.306,13.306,0,0,0,13.306,13.306H42.168c8.5.63,26.265,5.3,27.872,32.912v8.768a13.7,13.7,0,0,0,0,2.571V189.27a13.306,13.306,0,0,0,13.306,13.319h43.146a13.319,13.319,0,0,0,13.319-13.319V146.137a13.306,13.306,0,0,0-11.89-13.229Z" transform="translate(0 13.858)"/></svg>